<?xml version="1.0" ?><!DOCTYPE svg  PUBLIC '-//W3C//DTD SVG 1.1//EN'  'http://www.w3.org/Graphics/SVG/1.1/DTD/svg11.dtd'><svg enable-background="new 0 0 217 217" height="217px" id="Layer_1" version="1.1" viewBox="0 0 217 217" width="217px" xml:space="preserve" xmlns="http://www.w3.org/2000/svg" xmlns:xlink="http://www.w3.org/1999/xlink"><g><path d="M167.124,17.187c-0.007-0.004-0.013-0.011-0.02-0.015c-0.022-0.014-0.045-0.027-0.067-0.042   c-0.923-0.593-1.857-1.167-2.799-1.732c-0.271-0.163-0.543-0.322-0.815-0.482c-0.776-0.457-1.56-0.904-2.348-1.342   c-0.21-0.116-0.418-0.236-0.628-0.351c-0.969-0.529-1.947-1.043-2.934-1.543c-0.239-0.121-0.48-0.238-0.721-0.358   c-0.818-0.408-1.644-0.805-2.474-1.193c-0.242-0.112-0.482-0.227-0.725-0.338c-1.025-0.469-2.057-0.924-3.099-1.362   c-0.163-0.069-0.329-0.133-0.493-0.202c-0.909-0.376-1.824-0.74-2.746-1.092c-0.256-0.098-0.513-0.197-0.771-0.293   c-1.079-0.403-2.165-0.795-3.26-1.165c-0.016-0.005-0.031-0.01-0.046-0.015c-1.072-0.361-2.154-0.701-3.241-1.03   c-0.267-0.081-0.534-0.16-0.802-0.239c-1.014-0.298-2.031-0.583-3.057-0.852c-0.104-0.027-0.206-0.057-0.311-0.084   c-1.117-0.29-2.243-0.557-3.374-0.812c-0.276-0.062-0.553-0.121-0.829-0.181c-0.938-0.203-1.878-0.394-2.824-0.572   c-0.235-0.044-0.469-0.092-0.705-0.135c-1.127-0.205-2.26-0.392-3.397-0.562c-0.272-0.041-0.546-0.076-0.819-0.114   c-0.92-0.13-1.843-0.249-2.77-0.355c-0.311-0.036-0.622-0.073-0.934-0.106c-1.144-0.122-2.292-0.229-3.445-0.315   c-0.217-0.016-0.434-0.026-0.65-0.041c-0.979-0.067-1.961-0.12-2.946-0.161c-0.336-0.014-0.672-0.027-1.009-0.038   C110.883,0.026,109.695,0,108.501,0C48.576,0.002,0.006,48.574,0,108.499c0,1.441,0.037,2.873,0.093,4.301   c0.01,0.24,0.017,0.48,0.027,0.72c0.063,1.371,0.152,2.735,0.265,4.093c0.01,0.108,0.013,0.218,0.021,0.326   c0.003,0.027,0.012,0.052,0.015,0.079c4.826,55.466,51.363,98.981,108.08,98.983c59.925-0.003,108.496-48.577,108.499-108.501   C216.998,70.17,197.126,36.489,167.124,17.187z M151.47,27.216c8.977,11.734,13.016,25.273,13.021,39.071   c0.028,28.037-16.899,57.055-43.217,72.151c-13.041,7.493-27.403,11.083-41.567,11.083c-27.986-0.008-55.093-14.008-69.675-39.548   c-0.007-0.493-0.031-0.98-0.031-1.474c0.098-54.397,44.103-98.4,98.5-98.498c1.002,0,1.998,0.025,2.992,0.055   c0.542,0.017,1.082,0.038,1.622,0.064c0.374,0.017,0.747,0.04,1.12,0.061c7.795,0.46,15.345,1.824,22.548,3.987   C142.235,17.311,147.159,21.609,151.47,27.216z M108.501,206.999c-50.433-0.091-91.926-37.923-97.785-86.787   c16.271,22.263,42.317,34.314,68.991,34.309c15.008,0,30.236-3.809,44.058-11.751c27.866-16.041,45.698-46.455,45.727-76.484   c0.006-14.771-4.37-29.467-14.052-42.111c-1.067-1.4-2.188-2.705-3.335-3.962c32.492,16.096,54.826,49.552,54.897,88.285   C206.901,162.896,162.898,206.901,108.501,206.999z" fill="#231F20"/><path d="M104.528,18.01c-14.466,0.011-30.501,5.435-46.777,14.826C30.852,48.479,19.492,77.894,19.42,94.79   c0.015,3.8,0.553,7.033,1.914,9.581c12.138,22.374,35.378,34.611,59.231,34.605c11.875,0,23.929-3.028,34.865-9.341   c22.049-12.759,36.138-36.9,36.169-60.794c0.006-11.751-3.463-23.468-11.141-33.535C131.442,23.41,118.707,17.969,104.528,18.01z    M146.6,68.84c0.028,21.913-13.171,44.658-33.668,56.465c-10.156,5.861-21.338,8.67-32.366,8.67   c-22.175-0.009-43.64-11.339-54.835-31.989c-0.76-1.359-1.324-3.918-1.31-7.197C24.349,79.88,35.228,51.499,60.25,37.165   c15.762-9.109,31.085-14.167,44.278-14.155c12.964,0.037,23.811,4.692,31.955,15.323C143.455,47.494,146.594,58.056,146.6,68.84z" fill="#231F20"/><path d="M187.464,139.034c-0.513-0.21-1.097,0.032-1.308,0.541c-9.502,22.936-28.148,41.771-52.212,51.387   c-0.513,0.204-0.763,0.789-0.559,1.301c0.204,0.512,0.786,0.763,1.301,0.555c24.57-9.816,43.608-29.047,53.315-52.477   C188.215,139.832,187.973,139.244,187.464,139.034z" fill="#231F20"/><path d="M194.113,105.844c-0.553-0.012-1.01,0.426-1.021,0.976c-0.142,6.08-0.893,12.054-2.202,17.857   c-0.124,0.538,0.216,1.074,0.754,1.197c0.538,0.121,1.073-0.219,1.194-0.757c1.342-5.93,2.107-12.039,2.252-18.251   C195.104,106.316,194.666,105.859,194.113,105.844z" fill="#231F20"/></g></svg>
