<?xml version="1.0" encoding="utf-8"?>
<!-- Generator: Adobe Illustrator 23.0.0, SVG Export Plug-In . SVG Version: 6.00 Build 0)  -->
<svg version="1.1" id="Layer_1" xmlns="http://www.w3.org/2000/svg" xmlns:xlink="http://www.w3.org/1999/xlink" x="0px" y="0px"
	 viewBox="0 0 217 217" style="enable-background:new 0 0 217 217;" xml:space="preserve">
<style type="text/css">
	.st0{fill:#FFFFFF;}
</style>
<g>
	<path class="st0" d="M167.1,17.2C167.1,17.2,167.1,17.2,167.1,17.2C167.1,17.2,167.1,17.1,167.1,17.2c-1-0.6-1.9-1.2-2.9-1.8
		c-0.3-0.2-0.5-0.3-0.8-0.5c-0.8-0.5-1.6-0.9-2.3-1.3c-0.2-0.1-0.4-0.2-0.6-0.4c-1-0.5-1.9-1-2.9-1.5c-0.2-0.1-0.5-0.2-0.7-0.4
		c-0.8-0.4-1.6-0.8-2.5-1.2c-0.2-0.1-0.5-0.2-0.7-0.3c-1-0.5-2.1-0.9-3.1-1.4c-0.2-0.1-0.3-0.1-0.5-0.2c-0.9-0.4-1.8-0.7-2.7-1.1
		c-0.3-0.1-0.5-0.2-0.8-0.3c-1.1-0.4-2.2-0.8-3.3-1.2c0,0,0,0,0,0c-1.1-0.4-2.2-0.7-3.2-1c-0.3-0.1-0.5-0.2-0.8-0.2
		c-1-0.3-2-0.6-3.1-0.9c-0.1,0-0.2-0.1-0.3-0.1c-1.1-0.3-2.2-0.6-3.4-0.8c-0.3-0.1-0.6-0.1-0.8-0.2c-0.9-0.2-1.9-0.4-2.8-0.6
		c-0.2,0-0.5-0.1-0.7-0.1c-1.1-0.2-2.3-0.4-3.4-0.6c-0.3,0-0.5-0.1-0.8-0.1C122.9,1,122,0.8,121,0.7c-0.3,0-0.6-0.1-0.9-0.1
		c-1.1-0.1-2.3-0.2-3.4-0.3c-0.2,0-0.4,0-0.7,0c-1-0.1-2-0.1-2.9-0.2c-0.3,0-0.7,0-1,0c-1.2,0-2.4-0.1-3.6-0.1
		C48.6,0,0,48.6,0,108.5c0,1.4,0,2.9,0.1,4.3c0,0.2,0,0.5,0,0.7c0.1,1.4,0.2,2.7,0.3,4.1c0,0.1,0,0.2,0,0.3c0,0,0,0.1,0,0.1
		c4.8,55.5,51.4,99,108.1,99c59.9,0,108.5-48.6,108.5-108.5C217,70.2,197.1,36.5,167.1,17.2z M151.5,27.2c9,11.7,13,25.3,13,39.1
		c0,28-16.9,57.1-43.2,72.2c-13,7.5-27.4,11.1-41.6,11.1c-28,0-55.1-14-69.7-39.5c0-0.5,0-1,0-1.5c0.1-54.4,44.1-98.4,98.5-98.5
		c1,0,2,0,3,0.1c0.5,0,1.1,0,1.6,0.1c0.4,0,0.7,0,1.1,0.1c7.8,0.5,15.3,1.8,22.5,4C142.2,17.3,147.2,21.6,151.5,27.2z M108.5,207
		c-50.4-0.1-91.9-37.9-97.8-86.8c16.3,22.3,42.3,34.3,69,34.3c15,0,30.2-3.8,44.1-11.8c27.9-16,45.7-46.5,45.7-76.5
		c0-14.8-4.4-29.5-14.1-42.1c-1.1-1.4-2.2-2.7-3.3-4c32.5,16.1,54.8,49.6,54.9,88.3C206.9,162.9,162.9,206.9,108.5,207z"/>
	<path class="st0" d="M104.5,18C90.1,18,74,23.4,57.8,32.8c-26.9,15.6-38.3,45.1-38.3,62c0,3.8,0.6,7,1.9,9.6
		C33.5,126.7,56.7,139,80.6,139c11.9,0,23.9-3,34.9-9.3c22-12.8,36.1-36.9,36.2-60.8c0-11.8-3.5-23.5-11.1-33.5
		C131.4,23.4,118.7,18,104.5,18z M146.6,68.8c0,21.9-13.2,44.7-33.7,56.5c-10.2,5.9-21.3,8.7-32.4,8.7c-22.2,0-43.6-11.3-54.8-32
		c-0.8-1.4-1.3-3.9-1.3-7.2c-0.1-14.9,10.8-43.3,35.8-57.6C76,28.1,91.3,23,104.5,23c13,0,23.8,4.7,32,15.3
		C143.5,47.5,146.6,58.1,146.6,68.8z"/>
	<path class="st0" d="M187.5,139c-0.5-0.2-1.1,0-1.3,0.5c-9.5,22.9-28.1,41.8-52.2,51.4c-0.5,0.2-0.8,0.8-0.6,1.3s0.8,0.8,1.3,0.6
		c24.6-9.8,43.6-29,53.3-52.5C188.2,139.8,188,139.2,187.5,139z"/>
	<path class="st0" d="M194.1,105.8c-0.6,0-1,0.4-1,1c-0.1,6.1-0.9,12.1-2.2,17.9c-0.1,0.5,0.2,1.1,0.8,1.2c0.5,0.1,1.1-0.2,1.2-0.8
		c1.3-5.9,2.1-12,2.3-18.3C195.1,106.3,194.7,105.9,194.1,105.8z"/>
</g>
</svg>
